<?xml version="1.0"?><svg xmlns="http://www.w3.org/2000/svg" xmlns:xlink="http://www.w3.org/1999/xlink" contentScriptType="text/ecmascript" fill="#ffa6d0" width="298.7" zoomAndPan="magnify" contentStyleType="text/css" viewBox="100.6 100.7 298.7 298.7" height="298.7" preserveAspectRatio="xMidYMid meet" version="1"><g id="change1_1"><path d="M250,100.65c82.49,0,149.35,66.87,149.35,149.35c0,62.95-38.95,116.8-94.07,138.78l-2.18-47.06l0-0.09 c0.12-9.31,4.05-16.64,12.77-20.33l1.12-0.45l0.06-0.02l0.07-0.03l0.11-0.04c6.42-2.6,11.65-6.1,15.21-12.16 c4.45-7.55,5.31-17.61,5.31-26.17c0-16.46-4.85-35.89-13.21-50.12c-5.94-10.11-15.31-20.34-27.96-20.34 c-12.65,0-22.02,10.23-27.96,20.34c-8.36,14.23-13.21,33.66-13.21,50.12c0,8.57,0.86,18.63,5.31,26.17 c3.6,6.1,8.89,9.61,15.34,12.21c0.18,0.07,0.36,0.15,0.54,0.22h0.05l0.56,0.24c8.75,3.68,12.73,10.93,12.85,20.36l0,0.09 l-2.45,52.86c-12.02,3.12-24.62,4.78-37.61,4.78c-13.45,0-26.48-1.79-38.88-5.12l-2.29-49.49l0-0.11 c0.12-9.54,4.19-17.06,13.12-20.84l1.14-0.45l0.04-0.01l0.04-0.02l0.13-0.05c6.3-2.55,11.44-5.98,14.94-11.93 c4.39-7.45,5.23-17.44,5.23-25.89c0-0.82-0.03-1.64-0.08-2.46c-0.03-0.47-0.07-0.94-0.13-1.4l-0.08-0.69l0.13-0.47l-5.43-63.17 l-5.68,0.01l-0.49,66.76l-9.46,0.94l-5.62-75.46l-6.16,0.37l-1.22,76.02l-3.35,0.14c-0.7,0.03-1.4,0.04-2.09,0.04 c-0.7,0-1.41-0.01-2.11-0.04l-3.33-0.14l-1.71-76.02l-6.16-0.36l-5.13,75.46l-9.47-0.94l-0.48-66.77l-5.71,0l-7.34,63.19l0.12,0.45 l-0.08,0.67c-0.05,0.47-0.09,0.94-0.12,1.41c-0.05,0.82-0.08,1.64-0.08,2.46c0,8.45,0.84,18.44,5.23,25.89 c3.53,6,8.73,9.43,15.07,11.98c0.15,0.06,0.3,0.12,0.44,0.18h0.05l0.66,0.28c8.95,3.77,13.06,11.21,13.19,20.86l0,0.11l-2.04,44.1 c-55.19-21.94-94.2-75.83-94.2-138.84C100.65,167.51,167.51,100.65,250,100.65" clip-rule="evenodd" fill-rule="evenodd"></path></g></svg>